<?xml version="1.0" encoding="UTF-8"?><svg id="Layer_1" xmlns="http://www.w3.org/2000/svg" xmlns:xlink="http://www.w3.org/1999/xlink" viewBox="0 0 1080 1080"><defs><style>.cls-1{fill:url(#linear-gradient);}.cls-2{fill:#fff;}</style><linearGradient id="linear-gradient" x1="82.18" y1="521.82" x2="969.52" y2="521.82" gradientUnits="userSpaceOnUse"><stop offset="0" stop-color="#cf4328"/><stop offset="1" stop-color="#d66922"/></linearGradient></defs><polygon class="cls-2" points="995.83 450.21 891.67 509.7 891.67 390.32 995.83 450.21"/><path class="cls-1" d="M969.52,509.76c-.01,27.8-9.76,51.43-29.21,70.89-19.48,19.48-42.99,29.21-70.53,29.21s-51.48-9.74-70.95-29.21c-19.48-19.47-29.21-43.13-29.21-70.95s9.74-51.05,29.21-70.53c19.47-19.47,43.13-29.21,70.95-29.21.03,0,.07,0,.1,0v45.91s-.07,0-.1,0c-15.03,0-27.75,5.29-38.19,15.86-10.43,10.58-15.65,23.24-15.65,37.98s5.22,27.75,15.65,38.19c10.43,10.43,23.16,15.65,38.19,15.65s27.4-5.22,37.98-15.65c10.56-10.42,15.84-23.13,15.86-38.13h45.91ZM581.59,579.77c-18.44-18.71-28.07-42.1-28.89-70.17.83-27.79,10.53-50.98,29.1-69.55,18.58-18.57,41.76-28.28,69.55-29.1,28.07.55,51.46,10.18,70.17,28.89,19.26,19.27,28.89,42.52,28.89,69.76v.41c0,4.13-1.52,7.64-4.54,10.53-3.03,2.89-6.6,4.33-10.73,4.33h-134.56c2.75,8.81,7.15,16.38,13.21,22.7,10.45,10.18,23.12,15.27,37.98,15.27s26.69-4.95,37.15-14.86c9.91,8.53,13.89,18.65,11.97,30.34-1.93,11.7-8.95,20.02-21.05,24.97-10.18,3.58-19.54,5.37-28.07,5.37-27.52,0-50.91-9.63-70.17-28.89ZM600.58,494.74h101.96c-2.48-8.8-6.88-16.37-13.21-22.7-10.46-10.46-22.98-15.69-37.56-15.69s-27.52,5.23-37.98,15.69c-6.06,6.33-10.46,13.9-13.21,22.7ZM940.08,580.07c-5.27,5.27-10.85,9.79-16.71,13.63v7.54c0,2.48-.27,4.96-.83,7.42-.27,2.48-.81,4.96-1.65,7.44,0,.54-.14.97-.41,1.24,0,.27-.15.68-.43,1.24,0,.54-.14,1.09-.41,1.65,0,.27-.14.54-.41.83v.41c-.27.54-.56.95-.83,1.24v.81c-.27.27-.41.56-.41.83-.27,0-.41.14-.41.41-.29.56-.56,1.1-.83,1.65l-.41.43c-.29.54-.56,1.09-.83,1.65-.27.27-.54.68-.81,1.24-.29.54-.56.97-.83,1.24v.41c-.27.27-.56.68-.83,1.24-.27.27-.54.54-.81.83-.29.27-.43.54-.43.81-.27.27-.54.43-.81.43v.41c-.56.54-.97.95-1.24,1.24-.27.27-.56.68-.83,1.24-1.38,1.38-2.75,2.6-4.13,3.7-.27.27-.54.56-.81.83-.56.27-.97.54-1.24.83-.29.27-.56.41-.83.41,0,.27-.14.54-.41.83-.27,0-.56.14-.83.41s-.54.54-.81.81c-.56,0-.97.14-1.24.43-.29.27-.7.54-1.24.81-.56.56-1.24.97-2.07,1.24-.27.27-.68.43-1.24.43l-.81.81h-.43c-.27.27-.54.43-.81.43h-.41c-.29.25-.56.41-.83.41v.41h-1.24c-.27.27-.56.41-.83.41-.27.27-.54.43-.81.43s-.56.14-.83.41c-.81.27-1.65.54-2.48.83-.81.27-1.65.41-2.46.41h-.43c-.27.27-.54.41-.81.41-.56,0-1.1.14-1.67.43h-2.05c-.27.27-.56.41-.83.41h-3.7c-.56,0-.97.14-1.24.41h-2.89c-.29-.27-.7-.41-1.24-.41h-3.72c-.27,0-.56-.14-.83-.41h-2.05c-.56-.29-.97-.43-1.24-.43-.56,0-.97-.14-1.24-.41h-1.24c-.56-.27-.97-.41-1.24-.41h-.41c-.56-.29-1.24-.56-2.07-.83-.54-.27-.97-.41-1.24-.41-.54-.29-1.09-.43-1.65-.43-.27-.27-.54-.41-.81-.41-.29-.27-.7-.56-1.24-.81-.83-.29-1.53-.56-2.07-.83-.81-.56-1.65-.97-2.48-1.24-.54-.56-1.24-.97-2.05-1.24-.27-.27-.56-.41-.83-.41-.54-.56-1.1-.97-1.65-1.24l-.83-.83c-.27,0-.54-.14-.81-.41-.27-.27-.56-.56-.83-.83h-.41c-.16-.16-.33-.31-.48-.48l.91-1.09c-.23-.17-5.5-4.59-14.73-12.09-45.67-37.14-143.07-12.71-275.7,25.85-38.87,11.32-75.57,21.97-102.67,27.15-66.58,12.67-124.32,10.06-171.58-7.79-53.52-20.21-95.25-60.98-124.03-121.18-40.24-84.21-8.53-153.52,38-182.25,26.76-16.55,59.48-20.97,92.11-12.48,35.71,9.28,70.8,33.54,102.11,70.45-2.75,2.52-5.39,5.29-7.91,8.35-4.69,5.79-8.25,12.25-10.73,19.41l-13.62,38.79-15.27,44.58c-3.29,6.34-7.77,9.49-13.41,9.49s-10.11-3.16-13.43-9.49l-28.89-83.38c-5.23-13.76-13.62-24.78-25.17-33.04-11.57-8.25-24.65-12.38-39.22-12.38l56.54,162.22c3.86,10.73,10.33,19.28,19.41,25.6,9.04,6.59,19.19,9.88,30.45,9.9,11.01.02,21.83-3.36,30.84-9.69,9.22-6.47,15.75-15.07,19.61-25.81l2.89-8.66,2.89,8.66c3.86,10.73,10.33,19.28,19.4,25.6,9.36,6.61,19.69,9.9,30.96,9.9s21.47-3.22,30.56-9.69c9.07-6.47,15.54-15.07,19.4-25.81l56.54-162.22c-14.57,0-27.65,4.13-39.2,12.38-11.57,8.25-19.96,19.28-25.19,33.04l-28.89,83.38c-3.31,6.34-7.79,9.49-13.41,9.49s-10.11-3.16-13.43-9.49l-15.27-44.58,29.01-83.44c.26-.74.12-1.58-.37-2.2-39.8-50.85-86.22-84.57-135.25-97.31-45.3-11.78-91.13-5.39-129.03,18.02-36.04,22.28-61.95,57.95-72.97,100.45-11.74,45.36-5.83,94.69,17.11,142.69,34.22,71.61,84.73,120.42,150.09,145.11,33.04,12.48,69.89,18.74,110.17,18.74,27.46,0,56.52-2.91,87.06-8.72,29.3-5.6,67.06-16.57,107.03-28.19,47.7-13.87,101.78-29.61,146.7-37.36,59.16-10.23,79.15-2.67,85.82,2.75,8.89,7.25,14.11,11.61,14.16,11.65l.27-.33c17.94,15.27,39.16,22.88,63.65,22.88h5.77c.54,0,1.1-.14,1.65-.41h3.31c.54-.27,1.09-.41,1.65-.41h2.05c.56-.27,1.1-.41,1.67-.41,1.09-.29,2.19-.56,3.29-.83h1.65l.43-.41h1.22c.27-.29.56-.43.83-.43h1.24c1.1-.54,2.21-.97,3.29-1.24.56,0,.97-.14,1.24-.41,1.38-.27,2.62-.68,3.72-1.24.54,0,1.1-.14,1.65-.41.56-.27.97-.41,1.24-.41.83-.29,1.51-.7,2.07-1.24.54,0,.95-.16,1.24-.43,1.09-.27,2.05-.68,2.89-1.22.27,0,.54-.16.81-.43.83-.27,1.8-.68,2.89-1.24.27-.27.7-.54,1.24-.81h.43c.27-.29.68-.56,1.24-.83.81-.56,1.65-1.1,2.46-1.65.27,0,.56-.14.83-.41.27-.29.68-.56,1.24-.83,1.09-.56,2.19-1.24,3.29-2.07.27-.27.56-.54.83-.81.54-.27.97-.56,1.24-.83.81-.54,1.51-1.1,2.05-1.65.27-.27.7-.56,1.24-.83.27-.27.56-.54.83-.81.27-.29.68-.56,1.24-.83l.41-.41c1.92-1.65,3.72-3.31,5.37-4.96.27-.27.54-.54.83-.81.54-.56,1.09-1.24,1.65-2.07.27-.27.54-.41.81-.41.83-1.1,1.67-2.21,2.48-3.31.27-.27.56-.54.83-.81s.54-.56.83-.83c1.09-1.38,2.19-2.89,3.29-4.53.27-.27.54-.56.83-.83.54-1.1,1.09-2.05,1.65-2.89.27-.54.54-.97.81-1.24.56-.81,1.1-1.78,1.67-2.89.27-.27.54-.7.81-1.24.83-1.65,1.65-3.29,2.48-4.94.27-.29.41-.56.41-.83.83-1.65,1.51-3.29,2.07-4.96.27-.27.54-.68.81-1.24.27-.54.56-1.24.83-2.05.27-.83.54-1.65.83-2.48.27-1.1.54-2.34.81-3.72.27-.54.56-1.1.83-1.65v-.41c0-.27.14-.7.41-1.24.27-1.94.68-3.86,1.24-5.77v-1.24l.41-1.24v-1.24c.27-.27.43-.7.43-1.24,0-1.1.14-2.34.41-3.72v-2.48c.27-2.46.41-4.94.41-7.42v-83.39c-1.76,24.09-11.31,44.83-28.69,62.22Z"/></svg>